<svg xmlns="http://www.w3.org/2000/svg" width="256" height="256"><path fill-opacity=".016" d="M0 128.004v128.004l128.25-.254 128.25-.254.254-127.75L257.008 0H0v128.004m.485.496c0 70.4.119 99.053.265 63.672.146-35.38.146-92.98 0-128C.604 29.153.485 58.1.485 128.5" fill="#1976D2" fill-rule="evenodd"/><path fill-opacity=".119" d="M113.416 1.436c-9.97 3.273-18.499 9.623-21.658 16.125l-2.09 4.303-8.084-.094c-10.218-.119-17.483 1.979-25.58 7.386-12.538 8.373-19.838 22.891-18.715 37.218.307 3.919 1.283 8.835 2.168 10.924 1.545 3.645 1.521 3.924-.593 6.893-6.874 9.654-8.821 23.504-4.81 34.223 2.388 6.383 9.35 14.567 15.418 18.123 4.148 2.43 4.254 2.627 4.843 8.932 1.485 15.908 14.068 27.528 29.809 27.53 3.644.001 8.538-.674 10.876-1.499 2.338-.825 4.494-1.5 4.79-1.5.296 0-2.469 3.115-6.144 6.922C86.461 184.364 84 188.853 84 194.518 84 201.724 88.491 206 96.061 206c2.481 0 2.83.434 3.421 4.25.362 2.338 1.142 5.807 1.735 7.709.592 1.903 1.19 6.403 1.329 10 .139 3.598.562 8.142.94 10.098l.688 3.557-7.588 1.18C88.324 244.078 82 246.304 82 247.926c0 2.919 8.648 5.628 21.921 6.867 9.651.9 41.414.917 50.579.027 14.589-1.418 23.043-4.241 21.868-7.302-.575-1.499-7.786-3.982-14.606-5.03-4.09-.628-5.425-2.299-6.317-7.909-.547-3.448-.456-3.579 2.483-3.579 1.678 0 5.307-.857 8.064-1.905 3.71-1.41 6.524-1.768 10.824-1.378 4.195.38 6.665.086 8.879-1.059 6.465-3.343 11.793-12.454 12.928-22.104.617-5.257.609-5.278-2.651-6.414-1.799-.627-3.991-1.14-4.871-1.141-2.387 0-2.285-15.248.13-19.663.952-1.74 2.03-5.79 2.394-9 .365-3.21 1.508-7.044 2.54-8.52 2.867-4.1 4.835-10.549 4.835-15.847 0-4.564.191-4.891 4.25-7.273 18.269-10.722 24.308-34.264 13.073-50.96l-3.443-5.115 1.705-6.299c5.106-18.862-4.497-39.319-22.585-48.111-7.413-3.603-17.591-5.467-23.589-4.32-4.065.777-4.101.757-6.398-3.572-3.114-5.87-8.908-10.902-16.89-14.668C141.038.779 139.566.508 129 .311c-7.47-.14-12.931.255-15.584 1.125M75.183 43.852c-17.77 6.303-22.801 28.583-9.465 41.918l4.405 4.406-1.665 6.639c-4.957 19.766 1.111 43.122 14.645 56.365 6.539 6.398 16.819 11.892 26.465 14.142l6.038 1.409 2.033-3.116c1.118-1.713 2.358-4.424 2.756-6.024.398-1.6 2.226-4.412 4.064-6.25 3.872-3.872 8.023-4.391 11.648-1.456 2.297 1.86 2.369 1.853 5.486-.524 2.354-1.795 3.321-3.487 3.794-6.635 1.941-12.905 3.977-21.381 5.46-22.726 1.232-1.118 1.653-3.253 1.653-8.391 0-5.476.359-7.118 1.75-7.995 1.273-.803 2.227-.804 3.5-.005 2.146 1.348 3.041 12.733 1.178 14.978-.987 1.19-.257 1.413 4.621 1.413 3.429 0 6.438.553 7.372 1.354 1.525 1.308 15.921 4.137 16.763 3.295.228-.228.682-5.14 1.01-10.916.466-8.233.204-12.157-1.211-18.166l-1.805-7.664 4.053-4.201c4.979-5.164 6.986-9.032 7.8-15.035 1.546-11.399-6.506-23.8-17.59-27.092-6.611-1.963-8.271-1.963-14.882 0-3.852 1.144-6.654 2.925-10.229 6.5-2.709 2.709-5.715 4.925-6.68 4.925-2.523 0-5.594 9.059-5.594 16.5 0 3.427.824 8.252 1.92 11.252 2.553 6.983 1.8 7.648-7.07 6.241-17.63-2.795-28.29-12.771-30.115-28.183-.509-4.299-1.314-5.802-5.319-9.936-7.753-8.001-17.113-10.454-26.789-7.022m2.472 7.561c-7.321 2.697-11.677 8.801-11.633 16.305.025 4.317 2.803 11.072 5.457 13.268 1.625 1.345 1.947 1.251 3.39-1 2.967-4.625 13.407-14.955 18.268-18.074 4.045-2.595 4.674-3.397 3.86-4.917-2.719-5.08-12.802-7.99-19.342-5.582m89 .046C162.963 52.775 158 56.566 158 58.07c0 .397 2.189 2.126 4.864 3.843 4.823 3.094 13.693 11.899 17.739 17.608 1.809 2.552 2.327 2.782 3.7 1.642 2.536-2.104 5.699-9.478 5.675-13.229-.026-4.115-2.899-10.726-5.771-13.279-2.347-2.088-8.704-4.567-11.707-4.567-1.1 0-3.73.617-5.845 1.371m-72.03 36.339c-.772 1.249.596 2.78 4.075 4.562 4.17 2.137 6.3 2.077 6.3-.175 0-2.814-8.996-6.619-10.375-4.387m59.625.947c-3.496 1.74-4.501 5.258-1.5 5.251 2.617-.005 8.25-3.748 8.25-5.481 0-1.926-2.595-1.837-6.75.23m-58.86 17.432c-.433.701.558 2.251 2.447 3.828l3.175 2.651-2.453 1.312c-3.891 2.083-4.5 6.032-.93 6.032 2.462 0 10.371-5.952 10.371-7.805 0-1.75-7.932-7.195-10.482-7.195-.77 0-1.727.53-2.128 1.177M124 113.5c0 .825.45 1.5 1 1.5 1.337 0 1.287 6.705-.057 7.535-1.966 1.215-5.593-.472-6.824-3.173-1.088-2.387-1.39-2.519-2.724-1.186-1.904 1.904-.278 6.014 3.094 7.818 1.636.876 2.436 2.439 2.871 5.613.841 6.135 4.194 12.393 6.64 12.393 1.799 0 6-6.212 6-8.872 0-.524 1.8-4.074 4-7.89 4.412-7.653 4.7-8.755 2.508-9.597-.973-.373-2.026.459-3.026 2.393-1.596 3.088-4.222 3.826-6.282 1.766-1.456-1.456-1.582-5.446-.2-6.3.55-.34 1-1.266 1-2.059 0-1.014-1.184-1.441-4-1.441-2.889 0-4 .417-4 1.5m-38.989 9.987C82.408 126.624 84.539 128 92 128c5.382 0 7.201-.36 7.643-1.513C100.755 123.591 98.046 122 92 122c-3.874 0-6.159.486-6.989 1.487M146.5 154.16c-1.1.605-3.667 2.688-5.705 4.629-3.055 2.91-3.967 3.313-5.19 2.298-.817-.678-1.624-2.212-1.795-3.41-.224-1.573-1.004-2.177-2.81-2.177-2.154 0-3.152 1.298-7.216 9.386-4.103 8.168-5.401 9.844-10 12.912-2.906 1.939-7.932 5.72-11.168 8.402-6.04 5.007-7.851 5.499-8.471 2.301-.375-1.934-.268-2.04 10.251-10.17 5.811-4.491 6.419-5.255 4.631-5.822-2.328-.739-7.396 2.836-13.328 9.403-10.151 11.235-8.658 20.35 3.049 18.609 5.852-.87 18.025-6.381 23.27-10.535 3.348-2.652 4.422-2.994 7.556-2.406 4.771.895 14.445-1.319 16.661-3.813 1.353-1.522 1.5-2.394.667-3.951-.776-1.449-.734-2.807.152-4.946 1.078-2.602.97-3.215-.916-5.224-2.95-3.139-2.726-3.991 1.843-7.015 7.389-4.89 6.04-12.605-1.481-8.471m32.484 3.359c-1.027 1.238-.957 1.853.378 3.328 2.197 2.429 2.065 3.613-.612 5.469l-2.25 1.56 2.934 2.414 2.934 2.415-2.184 1.87c-1.201 1.028-2.184 2.444-2.184 3.147 0 1.996 5.474 1.517 7.435-.65 2.269-2.508 3.785-9.38 2.997-13.583-1.15-6.131-6.505-9.515-9.448-5.97m.416 29.932c-.754 2.556-1.512 3.13-4.683 3.549-2.081.275-3.768.838-3.75 1.25.105 2.387-.143 2.75-1.884 2.75-1.195 0-2.256-1.02-2.82-2.712-.788-2.363-1.699-2.856-7.084-3.829-3.398-.615-6.179-.955-6.179-.756 0 2.501 3.684 7.665 7.15 10.022 9.075 6.171 18.619 6.981 22.1 1.875 1.633-2.394 2.801-8.81 2.194-12.045-.824-4.391-3.76-4.452-5.044-.104m-35.9 3.81c-2.2.501-6.762 1.06-10.138 1.241-5.081.272-7.084.957-11.634 3.978-3.022 2.007-8.135 4.731-11.362 6.054l-5.866 2.406.321 4.78c.176 2.629 1.138 6.635 2.137 8.903 1.143 2.592 1.493 4.634.945 5.5-1.414 2.233-1.028 7.609.668 9.306 2.222 2.221 6.679 1.948 9.928-.607 2.72-2.139 2.731-2.193.635-2.968-1.22-.451-2.134-1.66-2.134-2.822 0-1.92.609-2.032 11-2.032 10.174 0 11 .144 11 1.917 0 1.054-.562 2.104-1.25 2.334-.839.28-.018 2.274 2.5 6.068 2.063 3.108 3.75 6.067 3.75 6.577 0 1.424 6.106 6.235 7.376 5.813.618-.206 1.278-1.168 1.466-2.138.27-1.395-.106-1.622-1.798-1.085-2.114.671-5.044-.857-5.044-2.63 0-.494 1.159-1.427 2.575-2.072 2.281-1.039 2.499-1.575 1.913-4.699-.364-1.939-1.329-5.492-2.145-7.896-1.353-3.986-1.329-4.694.281-8.03 2.321-4.811 2.931-14.833 1.354-22.261-.695-3.276-1.537-6.09-1.871-6.253-.334-.163-2.407.114-4.607.616m12.486 16.019c-.007 3.421-.284 7.232-.616 8.468-.559 2.085-.358 2.202 2.764 1.61 1.851-.352 3.885-1.045 4.519-1.54 1.2-.939 2.326-9.818 1.244-9.818-.34 0-2.256-1.111-4.257-2.47l-3.64-2.47-.014 6.22m-32.584-1.885c-.294.767-.393 3.129-.219 5.25l.317 3.855h9l.3-4.086c.347-4.742-1.776-7.509-4.211-5.488-.965.801-1.616.839-2.059.123-.913-1.478-2.495-1.303-3.128.346m45.748 12.594c-3.331 2.807-9.734 5.011-14.561 5.011-1.919 0-2.377.39-1.904 1.621 1.359 3.542 15.933-.841 20.302-6.106 2.511-3.025-.399-3.425-3.837-.526m-43.383 15.761c-.244 2.063-.745 4.425-1.113 5.25-.556 1.244.446 1.516 5.869 1.594 3.597.051 6.402-.174 6.235-.5l-2.73-5.344c-1.988-3.892-2.913-4.75-5.122-4.75-2.37 0-2.75.454-3.139 3.75m-12.54 5.983c-2.35.211-4.011.808-3.691 1.326.881 1.424 4.835 1.127 7.023-.527 1.067-.808 1.716-1.404 1.441-1.325-.275.078-2.423.315-4.773.526" fill="#1976D2" fill-rule="evenodd"/><path fill-opacity=".606" d="M115.105 1.583c-2.968.798-7.625 2.664-10.349 4.146-5.35 2.912-13.447 11.195-14.314 14.642-.498 1.983-1.201 2.134-10.238 2.199-14.983.108-24.43 4.608-33.798 16.099-8.331 10.22-10.955 24.121-6.999 37.078 1.757 5.754 1.781 6.388.297 8.027-.886.979-2.859 4.468-4.386 7.753-2.353 5.065-2.773 7.265-2.761 14.473.022 13.125 4.896 22.093 15.86 29.187l5.918 3.829.301 5.584c1.063 19.699 20.861 33.028 39.605 26.665 3.158-1.072 5.935-1.756 6.17-1.52.236.236-2.372 3.202-5.795 6.592-3.424 3.39-7.02 7.873-7.991 9.964-5.162 11.104-1.523 18.882 8.937 19.105 4.388.093 4.438.133 4.438 3.601 0 1.928.508 5.078 1.129 7 .621 1.921 1.241 6.643 1.378 10.493.234 6.575 1.343 12.861 2.94 16.658.974 2.319 6.006 4.196 9.138 3.41 6.076-1.525 11.415-8.086 11.415-14.028 0-2.152.456-2.54 2.98-2.54 2.477 0 3.329.685 5.051 4.061 3.836 7.519 8.803 14.6 11.465 16.345 8.02 5.254 15.531-1.652 11.105-10.211-.769-1.487-1.557-4.234-1.75-6.104-.347-3.364-.304-3.404 4.149-3.815 2.475-.228 6.3-1.198 8.5-2.155 3.035-1.32 4.767-1.514 7.18-.806 10.787 3.168 22.427-8.613 23.53-23.815.287-3.964.248-4.013-4.358-5.397l-4.648-1.396-.38-7.524c-.32-6.326-.018-8.238 1.898-12.022 1.503-2.969 2.278-6.272 2.278-9.708 0-3.268.527-5.645 1.414-6.381 2.636-2.188 5.675-10.217 6.267-16.559.516-5.522.91-6.461 3.14-7.478 7.195-3.277 14.804-11.951 17.787-20.274 1.991-5.555 2-18.051.017-23.522-.849-2.344-2.931-6.276-4.625-8.739-2.324-3.377-2.85-4.912-2.14-6.239.518-.969 1.489-4.545 2.159-7.949 3.408-17.327-7.108-36.269-24.76-44.598-6.082-2.87-7.751-3.202-16.668-3.317l-9.909-.128-1.855-3.615c-7.337-14.302-29.78-22.165-48.722-17.071M74.463 43.591C64.482 47.135 58 56.699 58 67.881c0 7.748 2.215 12.97 7.824 18.447l3.858 3.768-1.402 5.202c-5.638 20.907.581 44.859 15.197 58.532 7.035 6.58 17.278 12.088 26.385 14.187 5.328 1.228 5.375 1.218 7.662-1.64 1.265-1.583 2.789-4.503 3.387-6.49 1.634-5.432 5.582-8.887 10.154-8.887 2.148 0 4.488.696 5.398 1.606 1.474 1.474 1.881 1.416 4.969-.7 3.206-2.196 3.463-2.845 5.495-13.855C150.011 121.343 149.8 122 152.078 122c1.188 0 1.765-.445 1.382-1.065-.362-.585-.675-3.77-.695-7.077-.041-6.48 1.581-9.43 4.557-8.288 1.359.521 1.678 2.035 1.678 7.954 0 4.938-.406 7.457-1.25 7.765-.687.25.55.791 2.75 1.202 2.2.412 9.072 1.761 15.271 2.999 6.199 1.238 11.447 1.966 11.663 1.617.216-.35.927-3.554 1.58-7.121 1.296-7.077.774-15.423-1.5-23.976l-1.46-5.49 3.92-4.01c5.117-5.235 7.976-11.705 8.004-18.111.046-10.695-4.931-18.774-14.455-23.462-5.571-2.743-7.26-3.122-12.243-2.746-7.306.55-12.632 3.098-17.84 8.533-2.253 2.352-4.794 4.276-5.645 4.276-.902 0-2.435 2.061-3.672 4.935-2.545 5.917-2.777 15.615-.515 21.565.836 2.2 1.604 4.675 1.706 5.5.427 3.449-12.662 1.856-21.531-2.619-9.25-4.669-14.005-11.395-15.979-22.604-.898-5.098-1.824-6.99-5.198-10.627-7.661-8.254-18.206-11.087-28.143-7.559M95 88.48c0 1.7 7.583 5.896 9.034 4.999 1.834-1.133.952-2.445-2.994-4.459-4.716-2.405-6.04-2.524-6.04-.54m59.25.682c-3.341 2.078-3.973 3.273-2.284 4.317 1.422.879 9.233-3.383 8.767-4.783-.63-1.891-2.963-1.723-6.483.466m-57.926 17.435c-.397 1.035.384 2.393 2.218 3.855l2.831 2.257-2.686 1.761c-2.705 1.772-3.47 3.928-1.768 4.98 1.249.772 11.081-5.435 11.081-6.995 0-1.146-8.776-7.455-10.369-7.455-.382 0-.97.719-1.307 1.597M125 113.014c0 .557.537 1.874 1.194 2.925 1.946 3.116-.448 7.28-3.952 6.877-1.692-.195-3.12-1.178-3.729-2.566-.543-1.237-1.556-2.25-2.25-2.25-2.277 0-1.323 4.142 1.578 6.851 1.793 1.676 3.29 4.528 4.06 7.736 1.455 6.065 4.681 11.713 6.379 11.169 1.233-.395 2.789-3.155 6.907-12.256 1.244-2.75 3.061-6.073 4.038-7.385 2.061-2.769 2.341-6.115.512-6.115-.694 0-1.707 1.013-2.25 2.25-.708 1.614-1.835 2.25-3.987 2.25-2.666 0-3.035-.369-3.318-3.315-.175-1.824.158-3.89.741-4.592.583-.703.764-1.573.402-1.935-1.055-1.054-6.325-.758-6.325.356m27.997 12.261c-.002.124-.902 4.853-2 10.51-2.257 11.625-2.345 12.548-1.122 11.792.481-.297 1.436-4.149 2.122-8.559 1.111-7.143 1.48-8.014 3.375-7.98 3.057.055 26.625 4.625 27.292 5.293.308.308.037 3.562-.601 7.232-1.269 7.283-.753 9.975.726 3.788 1.639-6.858 3.191-15.704 2.82-16.075-.198-.199-6.379-1.454-13.735-2.79s-14.612-2.656-16.124-2.932c-1.512-.277-2.751-.403-2.753-.279M134 128.059c0 .582.45.781 1 .441s1-.816 1-1.059-.45-.441-1-.441-1 .477-1 1.059m30 1.808c0 .498 2.066 1.216 4.592 1.594 4.925.739 7.377-.001 3.026-.912-1.44-.302-3.743-.783-5.118-1.068-1.375-.286-2.5-.112-2.5.386m-37.642.759c-.836.343-.858 1.394-.082 3.921 1.334 4.347 2.113 4.351 3.443.017.856-2.79.778-3.543-.414-4-.808-.31-1.544-.528-1.637-.485-.092.043-.682.29-1.31.547m18.412 24.403c-2.516 1.666-5.123 3.691-5.794 4.5-1.77 2.132-3.787 1.804-4.156-.677-.176-1.181-1.107-2.641-2.07-3.245-2.429-1.522-4.79.118-7.162 4.977-1.052 2.154-2.299 4.591-2.77 5.416-.472.825-1.529 2.96-2.349 4.744-.82 1.785-3.399 4.432-5.73 5.884-2.331 1.451-7.301 5.092-11.043 8.092-6.155 4.933-9.696 6.177-9.696 3.405 0-1.016 6.859-6.924 13.876-11.954 3.414-2.447 4.019-3.274 2.748-3.762-2.944-1.129-6.05.428-11.818 5.927-7.353 7.009-9.798 11.094-9.802 16.379-.003 3.287.468 4.467 2.139 5.362 5.297 2.835 20.205-1.643 29.765-8.94 4.003-3.056 5.115-3.391 12.002-3.62 4.174-.138 8.49-.502 9.59-.808 1.1-.306 2.322-.59 2.715-.632.393-.043 1.226-1.033 1.852-2.202.867-1.62.833-2.694-.145-4.52-.985-1.84-1.008-2.669-.102-3.575 1.745-1.745 1.439-4.175-.859-6.825l-2.039-2.351 4.48-3.83c4.966-4.244 6.377-7.13 4.558-9.322-1.729-2.084-3.045-1.831-8.19 1.577m34.671 1.41c-1.652 1.225-1.755 1.744-.691 3.487 1.669 2.734 1.577 4.734-.25 5.436-2.23.855-1.868 4.729.5 5.348 2.423.634 2.543 2.033.379 4.424-2.017 2.228-1.131 4.866 1.635 4.866 7.627 0 11.011-17.141 4.492-22.748-3.081-2.65-3.509-2.708-6.065-.813m-27.653 23.571c.485 3.305-.047 3.082 13.072 5.469 11.257 2.048 11.332 2.039 10.956-1.229-.303-2.64-.737-2.839-10.816-4.964-13.886-2.929-13.749-2.936-13.212.724m5.746-.065c-.965 1.561.305 3.055 2.598 3.055 1.375 0 1.908-.552 1.68-1.739-.384-1.992-3.305-2.891-4.278-1.316m21.828 6.997c-.634 3.166-3.77 4.883-6.797 3.721-.932-.357-1.551.195-1.753 1.564-.492 3.339-2.785 3.306-4.054-.058-1.026-2.718-1.778-3.141-7.283-4.1-3.376-.588-6.416-1.069-6.755-1.069-1.675 0 1.912 6.339 5.341 9.436 5.036 4.549 9.979 6.564 16.107 6.564 7.795 0 11.584-5.355 10.659-15.067-.255-2.682-.822-3.503-2.588-3.754-1.829-.26-2.378.268-2.877 2.763m-39.862 4.69c-3.3.807-7.371 1.216-9.046.91-2.303-.42-3.889.081-6.5 2.058-4.021 3.043-16.745 9.4-18.815 9.4-1.909 0-1.008 10.42 1.286 14.854 1.351 2.613 1.449 3.902.548 7.245-.9 3.342-.812 4.497.489 6.484 2.257 3.444 8.284 3.38 11.574-.122l2.385-2.538-2.21-.578c-1.216-.318-2.211-1.323-2.211-2.234 0-1.441 1.357-1.643 10.486-1.563 5.768.05 10.749.354 11.07.674.32.321.016 1.49-.676 2.598-1.099 1.761-.74 2.814 2.848 8.348 2.258 3.482 5.136 7.364 6.394 8.625 2.748 2.753 6.378 2.587 6.378-.293 0-1.656-.558-1.944-3.25-1.675-2.727.273-3.25-.008-3.25-1.75 0-1.408.642-2.075 2-2.075 2.622 0 2.642-4.452.052-11.955-1.858-5.382-1.857-5.507.105-9.353 2.377-4.658 2.79-15.575.891-23.494-1.402-5.843-1.328-5.818-10.548-3.566m16.285 12.653c.211 1.807-.052 5.684-.585 8.616l-.969 5.331 4.005-.537c4.983-.668 5.364-1.097 6.106-6.876l.601-4.68-4.598-2.57c-2.528-1.413-4.675-2.569-4.77-2.569-.095 0-.001 1.478.21 3.285m-32.387 2.12c-.892 2.324.014 7.912 1.353 8.352.688.226 1.637-.632 2.109-1.907l.857-2.317.726 2.288c1.165 3.671 3.031 1.923 3.362-3.149.236-3.628-.032-4.672-1.201-4.672-.827 0-1.963.787-2.524 1.75-.971 1.667-1.021 1.667-1.05 0-.036-2.085-2.861-2.353-3.632-.345m44.857 11.918c-3.311 2.378-5.578 3.145-10.309 3.487-4.792.347-5.947.745-5.505 1.896.307.802.559 1.646.559 1.876 0 .23 1.912.408 4.25.396 5.096-.026 11.345-2.732 14.687-6.359 3.686-4.002 1.27-4.852-3.682-1.296m-51.617 20.82c-1.025.595-3.5.828-5.5.517l-3.638-.565 2.246 1.86c2.548 2.109 5.318 1.737 7.844-1.055 1.945-2.148 1.732-2.317-.952-.757" fill="#1976D2" fill-rule="evenodd"/><path fill-opacity=".323" d="M116.773 1.555c-11.76 2.851-21.045 9.243-24.853 17.111l-2.216 4.577-4.741-.561c-11.902-1.41-26.324 3.584-34.784 12.044-10.665 10.664-14.92 27.373-10.374 40.737 1.956 5.75 1.965 6.053.242 8.5-3.25 4.617-5.793 10.462-7.088 16.287-2.892 13.016 4.982 29.197 17.418 35.794l4.381 2.324.473 6.566c1.443 20.017 20.648 32.266 40.114 25.585 2.664-.914 5.101-1.406 5.415-1.092.314.314-2.437 3.686-6.113 7.493-3.676 3.808-7.35 8.519-8.165 10.47-1.526 3.65-1.958 10.207-.861 13.065.924 2.407 5.749 4.545 10.257 4.545h3.978l.693 5.75c.381 3.162 1.282 7.193 2.003 8.957.945 2.313 1.041 4.182.346 6.702-.728 2.635-.588 4.397.568 7.165.844 2.019 1.534 4.94 1.534 6.491 0 5.562 7.52 7.744 13.701 3.975 3.674-2.239 6.4-6.891 6.52-11.124.077-2.687.377-2.916 3.824-2.916 2.645 0 3.934.513 4.4 1.75 1.578 4.194 9.056 15.493 11.756 17.766 6.962 5.858 14.903.456 11.456-7.794-.787-1.884-1.747-5.292-2.132-7.574l-.701-4.148 4.338-.022c2.386-.012 6.212-.873 8.503-1.913 3.183-1.445 5.554-1.765 10.063-1.356 7.269.659 11.059-1.052 15.302-6.909 3.185-4.397 5.97-12.328 5.97-17.003 0-2.912-1.509-4.03-7-5.184-2.426-.51-2.499-.77-2.471-8.819.021-6.044.518-9.206 1.834-11.657.992-1.849 2.056-5.899 2.364-9 .308-3.1 1.405-6.845 2.437-8.321 2.924-4.179 4.836-10.581 4.836-16.193 0-5.053.064-5.161 4.486-7.506 5.627-2.986 13.07-10.859 15.538-16.437 4.798-10.849 3.852-23.481-2.535-33.829l-3.558-5.764 1.639-5.01c1.149-3.513 1.532-7.499 1.284-13.347-.653-15.386-9.306-28.303-23.368-34.884-7.186-3.362-15.537-4.85-23.098-4.115-4.96.482-5.144.407-6.164-2.519-1.417-4.063-7.621-10.774-12.727-13.766-5.21-3.054-18.327-6.473-24.407-6.363-2.524.046-7.167.708-10.317 1.472m1.226 3.798c-11.333 2.443-19.653 8.599-23.659 17.504-2.092 4.651-2.702 5.274-4.625 4.725-9.13-2.61-18.278-1.406-27.967 3.68-16.3 8.555-24.01 28.382-17.401 44.745l2.545 6.301-3.412 3.987c-6.907 8.069-8.893 21.532-4.602 31.205 2.762 6.227 9.144 12.911 15.372 16.101l4.75 2.433v5.617c0 8.027 1.764 12.871 6.681 18.339 5.236 5.824 10.757 8.224 18.962 8.245 8.811.022 9.382-.863 3.178-4.922-2.927-1.914-6.594-4.68-8.151-6.147-4.895-4.612-11.435-15.437-14.322-23.704-2.533-7.255-2.779-9.205-2.764-21.962.01-8.167.489-15.099 1.149-16.639.991-2.307.822-2.93-1.343-4.964-1.362-1.28-3.919-5.258-5.683-8.841-5.74-11.66-4.035-24.152 4.601-33.711 5.939-6.575 11.653-8.848 22.192-8.828 10.212.02 14.449 1.651 20.414 7.862 3.01 3.134 3.553 3.365 4.587 1.95.645-.882 1.805-1.394 2.578-1.136 1.071.357 1.327 2.135 1.079 7.494-.403 8.741 1.169 14.167 5.61 19.355 4.004 4.677 9.55 7.784 17.061 9.557 4.877 1.151 5.274 1.115 4.678-.421-1.921-4.941-2.568-12.567-1.503-17.699 1.597-7.69 6.733-17.649 8.912-17.28.943.16 3.26-1.015 5.149-2.61 9.847-8.312 22.71-10.04 33.735-4.531 7.031 3.513 10.472 7.171 14.058 14.942 4.869 10.554 2.435 24.46-5.707 32.605l-3.104 3.104 1.575 7.396c2.15 10.097 1.236 22.855-2.514 35.071-4.629 15.078-4.738 16.846-1.246 20.192l2.959 2.835 1.84-2.807c1.278-1.951 1.948-5.197 2.197-10.639l.357-7.832 4.927-2.497c5.984-3.032 11.984-8.862 15.064-14.637 1.922-3.604 2.289-5.812 2.291-13.791.003-10.223-.837-12.766-6.672-20.192-2.771-3.526-2.837-3.844-1.479-7.093 2.81-6.727 3.668-13.269 2.544-19.406-3.239-17.685-19.074-31.526-36.296-31.726-3.902-.046-8.512.28-10.244.725-3.067.786-3.216.666-5.594-4.5-4.243-9.219-12.479-15.154-24.555-17.693-6.494-1.366-11.033-1.307-18.202.238m-45.475 38.71c-16.516 8.238-20.364 28.248-7.985 41.529l4.574 4.908-1.556 6.206c-.857 3.413-1.55 10.163-1.542 15 .044 26.283 13.57 46.126 37.122 54.46 12.366 4.376 12.93 4.225 17.24-4.612 1.997-4.095 4.629-8.145 5.849-9a8.249 8.249 0 0 1 9.897.345c2.33 1.886 2.369 1.88 5.979-.979 2.87-2.274 3.75-3.775 4.191-7.149.915-7.008 3.579-20.754 4.224-21.799.331-.535 1.53-.972 2.664-.972 1.665 0 1.837-.273.891-1.413-.705-.849-1.052-3.938-.872-7.75.285-6.013.428-6.337 2.8-6.337 2.378 0 2.515.316 2.804 6.474.243 5.187-.036 6.723-1.404 7.723-1.37 1.002-1.43 1.335-.303 1.688 1.585.497 29.039 5.628 30.07 5.62 1.228-.009 2.834-10.024 2.775-17.304-.031-3.961-.847-10.229-1.813-13.931l-1.755-6.729 3.898-3.771c5.866-5.675 8.023-10.592 8.01-18.267-.006-3.813-.686-8.039-1.644-10.216-7.767-17.652-30.952-21.462-43.545-7.155-2.417 2.746-4.417 4.181-5.335 3.829-1.039-.399-2.148.986-3.795 4.738-3.143 7.157-3.224 17.354-.192 24.096 2.747 6.108 1.788 6.612-8.38 4.405-9.789-2.124-13.955-4.21-19.566-9.798C110.937 73.033 108 66.07 108 59.35c0-2.568-1.039-4.356-4.75-8.177-6.758-6.959-11.617-9.182-19.96-9.133-4.703.027-8.012.649-10.766 2.023m22.93 44.011c-.781 1.264-.805 1.239 3.246 3.299 3.655 1.858 5.3 2.059 5.3.647 0-1.579-7.786-5.175-8.546-3.946m58.296 1.498c-3.013 1.635-3.641 3.428-1.2 3.428 2.172 0 7.45-2.852 7.45-4.026 0-1.417-3.079-1.122-6.25.598m-57.263 16.449c-.823 1.332 1.074 3.705 3.603 4.508 2.7.856 2.376 2.082-1.09 4.13-3.209 1.896-4.015 4.341-1.43 4.341.863 0 3.594-1.393 6.069-3.095 4.131-2.843 4.372-3.235 2.953-4.803-2.595-2.868-9.368-6.273-10.105-5.081m28.895 7.17c-.405.655-.206 1.368.441 1.583 1.712.571 1.442 5.819-.394 7.655-2.635 2.634-5.197 1.84-7.372-2.286-.789-1.498-1.591-2.009-2.198-1.402-1.411 1.411.918 5.836 3.751 7.127 1.789.815 2.404 1.911 2.444 4.361.03 1.799.831 5.296 1.779 7.771 1.374 3.585 2.206 4.5 4.098 4.5 2.002 0 2.817-1.094 5.199-6.974 1.554-3.835 3.715-8.178 4.803-9.649 2.479-3.353 3.714-7.877 2.151-7.877-.624 0-1.547 1.086-2.051 2.414-1.246 3.275-4.649 4.243-7.105 2.021-2.051-1.856-2.593-5.906-.928-6.935.55-.34 1-1.266 1-2.059 0-1.757-4.561-1.96-5.618-.25m.298 13.059c-1.542 1.132-1.573 1.746-.33 6.527 1.442 5.551 2.233 6.973 3.289 5.917.352-.352 1.257-3.014 2.011-5.917 1.243-4.781 1.212-5.395-.33-6.527-.936-.687-1.98-1.25-2.32-1.25-.34 0-1.384.563-2.32 1.25m26.276.5c-.025.963-.864 6.137-1.865 11.5-1.422 7.623-1.541 9.75-.543 9.75.728 0 1.567-1.824 1.954-4.25.373-2.338 1.15-6.199 1.727-8.58.902-3.724 1.345-4.25 3.16-3.759 1.161.314 7.654 1.549 14.429 2.743 11.72 2.066 12.291 2.278 11.768 4.361-.515 2.052-1.419 7.086-1.882 10.485-.112.825.246 1.64.796 1.811 1.054.329 4.241-12.198 4.404-17.312l.096-3.001-14.75-2.751c-17.495-3.264-19.235-3.354-19.294-.997m-18.413.181c-.683 1.105.894 2.299 1.818 1.375.95-.951.773-2.306-.302-2.306-.518 0-1.2.419-1.516.931m12.43 26.72c-1.36.908-3.897 2.984-5.637 4.613-3.313 3.102-5.336 2.971-5.336-.344 0-2.722-4.387-4.674-6.521-2.902-.87.721-3.538 5.315-5.93 10.207-3.581 7.326-5.116 9.386-8.699 11.67-2.392 1.526-7.236 5.099-10.764 7.94-3.528 2.841-6.763 5.165-7.191 5.165-2.105 0-1.711-2.267.799-4.596 3.653-3.39 13.903-11.094 15.535-11.677 1.796-.641.79-1.341-2.949-2.052-2.964-.564-3.803-.04-10.568 6.606-10.254 10.074-13.167 17.187-8.695 21.234 4.537 4.106 17.676.939 29.781-7.179 5.662-3.796 7.171-4.377 9.999-3.846 4.044.758 14.042-1.251 16.453-3.307 1.869-1.595 2.367-5.684.809-6.646-.54-.334-.228-1.823.733-3.497 1.609-2.803 1.587-3.008-.559-5.292-2.304-2.453-2.935-4.748-1.304-4.748 2.123 0 8.071-6.825 8.071-9.261 0-3.874-3.853-4.876-8.027-2.088m32.785 3.019c-1.55 1.551-1.552 1.869-.032 4.443 1.576 2.668 1.546 2.849-.794 4.833l-2.432 2.062 3 2.519 3 2.518-2.406 1.85c-3.085 2.371-2.211 5.111 1.625 5.09 3.543-.02 4.638-.775 6.556-4.52 2.613-5.103 3.045-9.762 1.295-13.951-2.58-6.175-6.53-8.125-9.812-4.844m-27.289 23.031c.39 2.089.782 3.87.87 3.957.089.087 5.321 1.081 11.627 2.209 11.868 2.123 12.981 1.956 13.019-1.948.021-2.236-3.22-3.585-12.985-5.407-4.675-.871-9.567-1.816-10.871-2.098-2.256-.488-2.336-.329-1.66 3.287m29.781 4.067c-1.55.256-2.25 1.065-2.25 2.602 0 3.314-1.786 4.539-5.695 3.905-2.975-.483-3.413-.302-3.132 1.295.2 1.138-.351 1.997-1.423 2.217-1.212.249-1.75-.267-1.75-1.678 0-2.426-2.032-3.611-7.663-4.47-2.289-.349-4.876-.909-5.75-1.244-2.032-.78-2.023.883.026 5.202 3.718 7.836 18.195 14.382 25.298 11.44 4.243-1.758 6.089-5.676 6.089-12.928 0-6.425-.288-6.911-3.75-6.341M142 190.543c-3.025.755-7.622 1.391-10.216 1.415-3.708.033-5.959.844-10.524 3.792-3.194 2.063-7.821 4.583-10.283 5.602-7.671 3.173-7.506 2.982-7.156 8.284.176 2.675 1.103 6.664 2.059 8.864 1.319 3.036 1.513 4.767.804 7.183-1.375 4.683-.207 7.858 3.447 9.371 2.771 1.148 3.595 1.072 6.751-.623 4.221-2.268 5.175-4.921 2.061-5.736-1.185-.309-1.972-1.107-1.75-1.773.556-1.668 20.099-1.546 20.657.129.217.649-.155 1.52-.826 1.934-.878.543-.025 2.681 3.046 7.635 2.346 3.784 5.188 7.913 6.315 9.175 2.672 2.994 6.978 2.67 7.436-.558.283-1.991-.065-2.232-2.891-2-4 .328-5.047-1.862-1.53-3.199 2.865-1.089 2.85-2.971-.102-12.379-1.409-4.488-1.384-5.143.341-8.972 1.372-3.044 1.843-6.371 1.791-12.658-.068-8.24-1.755-17.119-3.219-16.944-.391.047-3.186.703-6.211 1.458m12.825 18.141c-.179 4.849.056 9.095.522 9.435.466.34 2.603.173 4.75-.372 3.378-.857 3.903-1.369 3.903-3.804 0-1.547.43-3.944.956-5.327.832-2.188.606-2.689-1.75-3.87-1.488-.746-3.91-2.149-5.381-3.117l-2.674-1.76-.326 8.815m30.256-5.27c-2.846 3.03-7.908 4.858-12.211 4.412-2.438-.253-3.312.139-3.91 1.753-.703 1.899-.414 2.073 3.325 2 3.469-.067 4.334.343 5.655 2.683 1.426 2.523 1.413 3.019-.143 5.75L176.093 223h3.608c2.896 0 4.344-.773 7.33-3.912 5.095-5.355 9.011-17.066 5.719-17.102-.687-.007-2.16-.258-3.272-.557-1.353-.363-2.809.294-4.397 1.985M124 209.5c0 3.333.389 4.5 1.5 4.5.825 0 1.5-.675 1.5-1.5s.45-1.5 1-1.5 1 .675 1 1.5.701 1.5 1.557 1.5c1.211 0 1.489-.93 1.25-4.172-.285-3.874-2.807-6.938-2.807-3.411 0 2.008-1.601 2.064-2.362.083-1.167-3.041-2.638-1.368-2.638 3m45.872 7.158c-2.192 2.649-9.004 5.296-13.692 5.32-3.902.02-4.288.239-4 2.272.288 2.026.84 2.237 5.536 2.115 7.322-.19 18.748-7.187 16.823-10.302-.968-1.566-3.103-1.294-4.667.595m-57.122 22.077c-4.902.387-5.614 1.001-3.55 3.065 1.887 1.887 5.037 1.405 8.3-1.269 1.657-1.358 2.328-2.394 1.5-2.315-.825.08-3.638.313-6.25.519" fill="#1976D2" fill-rule="evenodd"/></svg>