<svg xmlns="http://www.w3.org/2000/svg" width="833" height="833" viewBox="0 0 833 833" version="1.1">
	<path d="M 391.500 75.622 C 355.453 82.124, 325.288 103.638, 316.205 129.322 C 314.584 133.907, 314.353 134.113, 311.500 133.522 C 269.878 124.904, 225.493 141.964, 199.744 176.476 C 176.995 206.967, 171.703 246.295, 185.826 279.909 L 188.743 286.851 183.305 294.080 C 163.702 320.137, 158.604 354.469, 169.985 383.784 C 178.156 404.832, 196.881 424.799, 218.002 434.986 L 222.504 437.157 222.658 448.829 C 222.845 462.926, 225.156 472.657, 230.959 483.787 C 241.377 503.768, 257.509 516.978, 279.537 523.566 C 287.262 525.876, 290.296 526.246, 301.500 526.246 C 312.656 526.246, 315.752 525.872, 323.322 523.607 C 328.175 522.155, 333.977 520.032, 336.218 518.889 C 339.586 517.170, 340.726 517.010, 342.809 517.959 L 345.327 519.106 341.413 522.255 C 333.908 528.296, 318.729 543.548, 313.803 550 C 295.117 574.473, 295.757 600.444, 315.258 609.083 C 319.597 611.005, 322.266 611.413, 330.748 611.452 L 340.995 611.500 341.004 616.500 C 341.023 628.260, 346.407 651.807, 349.867 655.267 C 350.290 655.690, 349.786 659.291, 348.747 663.268 C 346.306 672.610, 346.925 681.382, 350.472 687.729 C 352.420 691.214, 353 693.679, 353 698.469 C 353 715.855, 369.239 724.682, 386.500 716.678 C 399.877 710.475, 408.907 697.120, 409.315 682.936 L 409.500 676.500 417.182 676.209 L 424.864 675.918 429.599 685.088 C 432.204 690.131, 436.630 697.462, 439.435 701.379 C 442.241 705.295, 445.771 711.031, 447.280 714.125 C 452.677 725.185, 465.693 734.304, 476.112 734.323 C 483.780 734.337, 488.078 731.585, 491.587 724.412 C 494.926 717.587, 494.511 711.671, 490.100 703.222 C 488.157 699.500, 486.717 694.704, 485.981 689.500 C 485.358 685.100, 484.638 680.600, 484.380 679.500 C 483.944 677.638, 484.466 677.487, 491.927 677.315 C 502.228 677.078, 510.486 674.976, 520.603 670.019 L 528.707 666.048 534.603 668.126 C 543.308 671.193, 557.313 670.509, 565 666.640 C 575.033 661.592, 585.949 649.006, 592.142 635.346 C 597.309 623.951, 601.412 601.507, 599.113 597.212 C 597.984 595.101, 588.980 591.650, 581.500 590.461 C 573.638 589.211, 574.163 590.270, 574.681 576.717 C 574.986 568.753, 574.672 561.841, 573.778 556.863 C 572.434 549.367, 572.451 549.173, 574.737 546.363 C 581.458 538.103, 586.213 521.988, 585.915 508.481 L 585.734 500.277 589.881 495.031 C 599.712 482.594, 605 466.267, 605 448.351 L 605 437.022 612.750 433.121 C 637.203 420.809, 655.684 398.244, 662.516 372.354 C 666.165 358.528, 666.138 339.237, 662.451 324.666 C 660.192 315.741, 652.045 299.559, 645.628 291.254 L 640.078 284.071 642.594 278.383 C 647.599 267.066, 649.439 256.866, 649.427 240.500 C 649.417 228.095, 649.016 223.963, 647.109 216.614 C 637.486 179.540, 611.140 150.522, 575.500 137.739 C 560.591 132.392, 541.932 130.206, 527 132.058 C 521.775 132.706, 516.679 133.295, 515.676 133.368 C 514.350 133.464, 513.216 131.948, 511.520 127.811 C 500.931 101.980, 470.908 81.210, 435.973 75.544 C 424.221 73.638, 402.286 73.677, 391.500 75.622 M 282.500 185.610 C 264.441 189.954, 246.400 204.379, 238.238 221 C 232.337 233.017, 230.690 240.959, 231.291 254.500 C 232.244 275.943, 240.291 290.925, 259.400 306.830 C 262.706 309.582, 262.682 309.978, 258.152 327.210 C 251.901 350.992, 251.702 377.553, 257.578 403.753 C 260.912 418.620, 263.867 426.830, 270.746 440.343 C 289.002 476.203, 321.104 501.074, 363.751 512.400 C 368.839 513.751, 375.443 515.161, 378.427 515.534 L 383.851 516.212 385.878 512.239 C 386.992 510.055, 389.039 506.919, 390.425 505.272 C 391.811 503.624, 394.067 498.727, 395.438 494.388 C 400.908 477.076, 410.243 468.074, 422.782 468.022 C 429.415 467.994, 434.342 470.022, 438.593 474.530 L 441.910 478.047 448.826 472.773 C 452.630 469.873, 456.476 467.050, 457.371 466.500 C 458.594 465.749, 460.604 456.824, 465.448 430.636 C 469.968 406.193, 472.406 395.209, 473.603 393.886 C 474.777 392.589, 476.667 392, 479.655 392 C 483.958 392, 483.981 391.981, 482.056 390.056 C 479.315 387.315, 478.746 382.989, 479.148 367.964 C 479.495 354.996, 479.536 354.794, 482.306 352.413 C 486.089 349.160, 491.268 349.177, 494.545 352.455 C 496.946 354.855, 497 355.260, 497 370.820 C 497 385.402, 496.827 386.950, 494.927 389.365 C 493.788 390.814, 492.100 392.030, 491.177 392.068 C 489.816 392.123, 489.877 392.307, 491.500 393.045 C 494.125 394.239, 570.112 408.221, 570.713 407.620 C 571.564 406.769, 572.958 399.592, 574.485 388.199 C 577.522 365.539, 575.917 342.079, 569.957 322.016 C 568.330 316.542, 567 311.571, 567 310.969 C 567 310.368, 571.425 305.516, 576.834 300.188 C 587.662 289.520, 593.252 280.399, 596.562 268 C 598.899 259.247, 598.915 243.575, 596.596 235 C 585.258 193.075, 539.938 172.152, 501.478 191.086 C 492.873 195.322, 483.512 203.287, 477.557 211.439 L 472.614 218.206 467.959 217.589 L 463.303 216.971 459.296 225.736 C 452.911 239.700, 451.589 245.634, 451.551 260.500 C 451.513 275.022, 453.458 284.021, 459.010 295.021 C 462.519 301.970, 462.703 304.054, 460.026 306.477 C 458.339 308.003, 456.992 308.161, 450.776 307.561 C 395.318 302.209, 364.025 274.502, 361.307 228.346 C 360.723 218.417, 360.652 218.179, 358.105 217.626 C 356.422 217.260, 354.289 215.255, 352.079 211.961 C 343.884 199.750, 327.235 188.639, 312.436 185.504 C 303.772 183.669, 290.373 183.716, 282.500 185.610 M 328.980 304.038 C 326.976 307.781, 328.808 309.884, 338.169 314.585 C 344.414 317.721, 348.155 319.019, 350.342 318.806 C 353.226 318.527, 353.500 318.196, 353.500 315 C 353.500 311.608, 353.221 311.354, 344.500 306.786 C 334.547 301.574, 330.666 300.886, 328.980 304.038 M 484.769 306.552 C 475.644 311.204, 473.255 314.193, 476.011 317.513 C 478.075 320, 482.079 319.148, 491.500 314.214 C 500.805 309.341, 502.770 306.837, 499.954 303.445 C 497.967 301.050, 493.950 301.872, 484.769 306.552 M 331.381 351.541 C 328.913 355.309, 330.653 357.996, 338.877 363.116 C 342.750 365.527, 345.937 367.734, 345.959 368.020 C 345.982 368.306, 342.815 370.505, 338.923 372.907 C 330.923 377.843, 329.018 380.852, 331.496 384.635 C 334.052 388.536, 337.328 387.609, 350.048 379.387 C 361.554 371.949, 363.338 370.010, 362.308 366.069 C 361.660 363.591, 338.721 349, 335.473 349 C 333.977 349, 332.407 349.975, 331.381 351.541 M 407.200 368.200 C 405.106 370.294, 405.786 373.945, 408.500 375.182 C 410.787 376.224, 411 376.866, 411 382.710 C 411 392.855, 407.762 397, 399.835 397 C 396.023 397, 390.255 391.524, 389.362 387.058 C 388.662 383.561, 385.904 381.578, 383.013 382.496 C 375.741 384.804, 383.902 402.160, 393.500 404.800 C 396.357 405.585, 396.537 405.956, 397.270 412.562 C 398.238 421.273, 401.479 432.985, 404.724 439.500 C 409.930 449.950, 415.171 452.563, 420.264 447.246 C 423.466 443.904, 428.263 433.488, 430.048 426 C 430.769 422.975, 431.954 420, 432.680 419.389 C 433.407 418.778, 435.640 414.728, 437.643 410.389 C 439.646 406.050, 442.169 401.878, 443.250 401.118 C 445.740 399.367, 449.977 390.357, 449.990 386.785 C 450.010 381.425, 442.602 380.592, 441.374 385.817 C 439.576 393.464, 434.023 397.790, 427.560 396.577 C 421.991 395.533, 420 392.070, 420 383.433 C 420 377.016, 420.241 376.058, 421.998 375.501 C 424.467 374.717, 425.663 370.504, 423.989 368.487 C 422.437 366.617, 409.013 366.387, 407.200 368.200 M 479.096 406.250 C 475.804 422.782, 468.945 461.278, 469.240 461.573 C 469.845 462.178, 474 460.801, 474 459.996 C 474 458.436, 481.923 416.743, 482.289 416.377 C 482.604 416.062, 559.163 429.887, 559.663 430.349 C 559.753 430.432, 558.307 438.600, 556.450 448.500 C 552.355 470.329, 552.361 470.232, 555.190 469.820 C 557.232 469.522, 557.706 467.742, 562.187 443.547 C 564.831 429.273, 566.658 417.290, 566.247 416.919 C 565.550 416.289, 483.907 400.980, 481.321 400.994 C 480.672 400.997, 479.671 403.363, 479.096 406.250 M 432.250 405.706 C 429.680 406.201, 429.585 406.625, 431.336 409.779 C 432.597 412.050, 432.608 412.045, 434.285 408.529 C 435.210 406.588, 435.637 405.061, 435.234 405.136 C 434.830 405.211, 433.488 405.467, 432.250 405.706 M 509.180 414.241 C 509.470 416.272, 510.625 416.689, 521.500 418.696 C 534.080 421.018, 536 421.004, 536 418.590 C 536 416.455, 535.079 416.100, 523.975 413.947 C 510.556 411.346, 508.773 411.381, 509.180 414.241 M 411.199 416.026 C 409.384 416.434, 407.734 416.933, 407.533 417.134 C 407.043 417.626, 412.730 435.102, 413.998 437 C 415.425 439.135, 416.370 437.459, 419.921 426.500 C 422.013 420.041, 422.507 417.327, 421.668 416.888 C 419.401 415.699, 414.461 415.293, 411.199 416.026 M 463.148 476.758 C 459.730 478.825, 453.157 484, 448.542 488.258 C 439.355 496.733, 436.254 497.843, 433.500 493.641 C 432.650 492.343, 432.241 490.535, 432.591 489.623 C 433.576 487.058, 431.026 482.065, 427.909 480.453 C 418.911 475.800, 410.014 483.960, 405.333 501.158 C 404.171 505.429, 402.382 508.915, 399.855 511.833 C 396.362 515.866, 393.899 521.009, 392.594 527 C 392.190 528.855, 389.559 531.014, 382.400 535.368 C 371.572 541.952, 353.295 555.553, 342 565.432 C 333.583 572.793, 330.194 573.752, 327.440 569.549 C 326.512 568.132, 326.103 566.250, 326.472 565.088 C 327.504 561.836, 350.898 542.421, 366.789 531.629 C 372.885 527.489, 374.472 525.997, 372.789 525.988 C 371.530 525.982, 368.118 525.342, 365.207 524.567 L 359.913 523.158 351.707 529.319 C 334.014 542.602, 318.300 561.033, 313.827 573.746 C 311.042 581.662, 311.578 590.838, 315.045 594.597 C 318.803 598.671, 323.514 600.215, 331.965 600.142 C 351.575 599.975, 381.335 587.107, 403.111 569.382 C 406.748 566.422, 410.488 564, 411.423 564 C 412.359 564, 415.378 564.737, 418.132 565.638 C 424.463 567.709, 436.014 567.021, 444.407 564.074 C 447.655 562.933, 451.861 562, 453.752 562 C 458.581 562, 462.706 559.238, 465.021 554.456 C 467.559 549.213, 467.529 548.735, 464.284 542.963 L 461.567 538.130 464.784 533.652 C 469.750 526.737, 468.799 521.865, 461.250 515.544 C 457.835 512.684, 457.097 509.480, 459.250 506.862 C 459.938 506.027, 462.809 503.903, 465.632 502.143 C 476.659 495.267, 484.224 484.351, 482.006 478.516 C 479.530 472.002, 472.150 471.314, 463.148 476.758 M 550.215 483.010 C 546.759 485.118, 544.899 488.481, 545.798 491 C 546.093 491.825, 547.782 494.132, 549.552 496.126 C 553.439 500.504, 553.267 504.513, 549.118 506.275 C 544.685 508.157, 543 510.148, 543 513.500 C 543 517.107, 545.099 519.441, 549.821 521.087 C 555.318 523.004, 555.385 529.770, 549.929 532.030 C 544.615 534.231, 543.296 539.837, 547.452 542.560 C 550.759 544.727, 558.273 544.609, 562.178 542.328 C 569.313 538.161, 575.731 519.980, 574.649 507 C 573.851 497.435, 571.396 491.404, 566.037 485.844 C 562.005 481.661, 560.831 481.001, 557.434 481.004 C 555.264 481.006, 552.027 481.906, 550.215 483.010 M 476.367 537.487 C 476.086 538.219, 476.336 540.547, 476.922 542.659 C 477.509 544.772, 477.991 548.102, 477.994 550.060 L 478 553.620 506.750 558.881 C 522.563 561.774, 536.458 564.369, 537.629 564.649 C 539.550 565.107, 539.867 564.543, 540.862 558.894 C 541.469 555.450, 541.858 552.602, 541.727 552.566 C 541.597 552.530, 540.142 551.288, 538.495 549.806 C 535.798 547.380, 532.761 546.606, 508 542.042 C 492.875 539.255, 479.685 536.789, 478.689 536.564 C 477.693 536.339, 476.648 536.754, 476.367 537.487 M 493 544 C 488.910 548.090, 491.954 555, 497.845 555 C 501.469 555, 504 552.215, 504 548.228 C 504 542.650, 497.029 539.971, 493 544 M 554.389 555.725 L 550.279 556.101 549.178 562.801 C 548.314 568.061, 547.491 570.008, 545.347 571.867 C 542.512 574.325, 541.019 574.377, 529.806 572.406 L 526.112 571.757 527.207 575.323 C 529.111 581.528, 524.461 585.922, 519.053 583.028 C 517.965 582.446, 516.548 579.510, 515.517 575.699 L 513.796 569.342 496.722 566.180 C 487.332 564.441, 479.471 563.195, 479.254 563.412 C 478.218 564.448, 483.370 577.680, 486.201 581.254 C 490.724 586.964, 502.871 596.359, 510.341 599.924 C 521.750 605.369, 536.978 607.523, 546.118 604.984 C 558.815 601.457, 565.161 587.578, 563.590 566.768 C 562.813 556.475, 562.356 554.939, 560.143 555.175 C 559.239 555.271, 556.650 555.519, 554.389 555.725 M 465.274 570.702 C 464.049 571.533, 460.449 572.560, 457.274 572.986 C 454.098 573.411, 447.941 574.713, 443.590 575.880 C 435.613 578.018, 422.956 578.571, 416.500 577.062 C 414.036 576.487, 412.785 576.930, 409.500 579.541 C 396.924 589.539, 376.677 600.634, 361.048 606.091 L 351.738 609.342 352.416 619.197 C 353.267 631.552, 356.020 642.463, 360.206 650.079 C 363.235 655.588, 363.360 656.189, 362.108 659.238 C 359.490 665.609, 357.834 673.299, 358.416 676.377 C 360.536 687.597, 373.499 693.325, 384.603 687.950 C 388.658 685.987, 397 678.036, 397 676.134 C 397 675.633, 395.321 674.908, 393.268 674.523 C 387.355 673.413, 386 672.307, 386 668.587 C 386 663.223, 387.650 662.565, 397.826 663.870 C 402.671 664.492, 410.174 665, 414.500 665 C 418.826 665, 426.329 664.492, 431.174 663.870 C 441.395 662.559, 443 663.216, 443 668.709 C 443 671.645, 442.539 672.348, 439.980 673.314 C 437.987 674.066, 437.149 674.945, 437.515 675.900 C 438.668 678.905, 447.372 692.925, 451.560 698.524 C 453.957 701.729, 456.180 705.542, 456.499 706.996 C 457.885 713.308, 469.418 723, 475.541 723 C 480.599 723, 483.965 717.668, 482.064 712.667 C 481.098 710.128, 480.999 710.103, 477.570 711.535 C 470.024 714.688, 464 712.698, 464 707.051 C 464 703.598, 465.368 702.452, 470.414 701.675 C 472.566 701.344, 474.742 700.658, 475.249 700.151 C 477.272 698.128, 472.031 673.276, 467.412 662.983 L 464.782 657.124 467.808 651.812 C 477.596 634.626, 479.036 610.260, 471.929 582.074 C 470.345 575.790, 468.700 570.321, 468.274 569.920 C 467.848 569.519, 466.498 569.871, 465.274 570.702 M 487.383 615.847 C 487.301 627.555, 486.806 634.133, 485.715 637.999 C 484.862 641.023, 484.391 643.723, 484.669 643.999 C 485.943 645.263, 497.545 643.836, 502.748 641.775 L 508.500 639.496 509.134 630.498 C 509.483 625.549, 510.455 619.646, 511.294 617.380 L 512.819 613.261 508.783 611.928 C 505.445 610.827, 501.463 608.451, 488 599.526 C 487.725 599.344, 487.448 606.688, 487.383 615.847 M 404.200 611.200 C 402.554 612.846, 402.554 633.154, 404.200 634.800 C 404.860 635.460, 406.570 636, 408 636 C 411.486 636, 413 634.275, 413 630.300 C 413 628.033, 413.470 627, 414.500 627 C 415.444 627, 416 627.952, 416 629.566 C 416 633.657, 417.761 636, 420.835 636 C 425.410 636, 426 634.515, 426 623 C 426 611.485, 425.410 610, 420.835 610 C 417.892 610, 416 612.322, 416 615.934 C 416 617.104, 415.349 618, 414.500 618 C 413.651 618, 413 617.104, 413 615.934 C 413 612.322, 411.108 610, 408.165 610 C 406.644 610, 404.860 610.540, 404.200 611.200 M 527.437 640.067 C 523.030 644.670, 514.330 650.119, 507.015 652.859 C 501.691 654.853, 498.533 655.317, 489.742 655.399 C 477.570 655.513, 476.849 656.002, 479.497 662.339 L 481.027 666 489.263 665.988 C 504.597 665.966, 518.175 660.356, 530.175 649.084 L 537.500 642.204 535.076 639.602 C 531.972 636.271, 531.016 636.329, 527.437 640.067 M 387.500 699.055 C 383.061 701.155, 371.008 701.714, 366.565 700.025 C 363.010 698.673, 363.137 701.002, 366.844 705.151 C 369.248 707.841, 370.388 708.333, 374.221 708.333 C 379.341 708.333, 385.647 705.127, 390.437 700.089 C 393.780 696.573, 393.186 696.364, 387.500 699.055" stroke="none" fill="black" fill-rule="evenodd"/>
</svg>